{
    "asset" : {
        "generator" : "Khronos glTF Blender I/O v1.0.5",
        "version" : "2.0"
    },
    "scene" : 0,
    "scenes" : [
        {
            "name" : "Scene",
            "nodes" : [
                0,
                1,
                2
            ]
        }
    ],
    "nodes" : [
        {
            "mesh" : 0,
            "name" : "StageMap"
        },
        {
            "mesh" : 1,
            "name" : "Cube",
            "translation" : [
                -1.5313576459884644,
                0.5635733008384705,
                -1.6876055002212524
            ]
        },
        {
            "mesh" : 2,
            "name" : "Wall",
            "translation" : [
                -16.40806007385254,
                0.5321410298347473,
                0.49075543880462646
            ]
        }
    ],
    "materials" : [
        {
            "doubleSided" : true,
            "name" : "mat1",
            "pbrMetallicRoughness" : {
                "baseColorTexture" : {
                    "index" : 0,
                    "texCoord" : 0
                },
                "metallicFactor" : 0,
                "roughnessFactor" : 0.5
            }
        },
        {
            "doubleSided" : true,
            "name" : "Material",
            "pbrMetallicRoughness" : {
                "baseColorTexture" : {
                    "index" : 1,
                    "texCoord" : 0
                },
                "metallicFactor" : 0,
                "roughnessFactor" : 0.5
            }
        },
        {
            "doubleSided" : true,
            "name" : "Material.001",
            "pbrMetallicRoughness" : {
                "baseColorTexture" : {
                    "index" : 2,
                    "texCoord" : 0
                },
                "metallicFactor" : 0,
                "roughnessFactor" : 0.5
            }
        }
    ],
    "meshes" : [
        {
            "name" : "obj1",
            "primitives" : [
                {
                    "attributes" : {
                        "POSITION" : 0,
                        "NORMAL" : 1,
                        "TEXCOORD_0" : 2,
                        "COLOR_0" : 3
                    },
                    "indices" : 4,
                    "material" : 0
                },
                {
                    "attributes" : {
                        "POSITION" : 5,
                        "NORMAL" : 6,
                        "TEXCOORD_0" : 7,
                        "COLOR_0" : 8
                    },
                    "indices" : 9,
                    "material" : 1
                }
            ]
        },
        {
            "name" : "obj1.001",
            "primitives" : [
                {
                    "attributes" : {
                        "POSITION" : 10,
                        "NORMAL" : 11,
                        "TEXCOORD_0" : 12,
                        "JOINTS_0" : 13,
                        "WEIGHTS_0" : 14
                    },
                    "indices" : 15,
                    "material" : 1
                }
            ]
        },
        {
            "name" : "obj1.002",
            "primitives" : [
                {
                    "attributes" : {
                        "POSITION" : 16,
                        "NORMAL" : 17,
                        "TEXCOORD_0" : 18,
                        "JOINTS_0" : 19,
                        "WEIGHTS_0" : 20
                    },
                    "indices" : 21,
                    "material" : 2
                }
            ]
        }
    ],
    "textures" : [
        {
            "source" : 0
        },
        {
            "source" : 1
        },
        {
            "source" : 1
        }
    ],
    "images" : [
        {
            "mimeType" : "image/png",
            "name" : "grs",
            "uri" : "grs.png"
        },
        {
            "mimeType" : "image/png",
            "name" : "stone",
            "uri" : "stone.png"
        }
    ],
    "accessors" : [
        {
            "bufferView" : 0,
            "componentType" : 5126,
            "count" : 8944,
            "max" : [
                29.999971389770508,
                4.160206317901611,
                29.999971389770508
            ],
            "min" : [
                -29.999971389770508,
                -1.2048132419586182,
                -29.999971389770508
            ],
            "type" : "VEC3"
        },
        {
            "bufferView" : 1,
            "componentType" : 5126,
            "count" : 8944,
            "type" : "VEC3"
        },
        {
            "bufferView" : 2,
            "componentType" : 5126,
            "count" : 8944,
            "type" : "VEC2"
        },
        {
            "bufferView" : 3,
            "componentType" : 5126,
            "count" : 8944,
            "type" : "VEC4"
        },
        {
            "bufferView" : 4,
            "componentType" : 5123,
            "count" : 13416,
            "type" : "SCALAR"
        },
        {
            "bufferView" : 5,
            "componentType" : 5126,
            "count" : 1056,
            "max" : [
                29.999971389770508,
                3.7477684020996094,
                19.199981689453125
            ],
            "min" : [
                -29.999971389770508,
                -0.8501142263412476,
                -28.799972534179688
            ],
            "type" : "VEC3"
        },
        {
            "bufferView" : 6,
            "componentType" : 5126,
            "count" : 1056,
            "type" : "VEC3"
        },
        {
            "bufferView" : 7,
            "componentType" : 5126,
            "count" : 1056,
            "type" : "VEC2"
        },
        {
            "bufferView" : 8,
            "componentType" : 5126,
            "count" : 1056,
            "type" : "VEC4"
        },
        {
            "bufferView" : 9,
            "componentType" : 5123,
            "count" : 1584,
            "type" : "SCALAR"
        },
        {
            "bufferView" : 10,
            "componentType" : 5126,
            "count" : 24,
            "max" : [
                0.5768927335739136,
                0.5768926739692688,
                0.5768929719924927
            ],
            "min" : [
                -0.5768924951553345,
                -0.5768927335739136,
                -0.5768927335739136
            ],
            "type" : "VEC3"
        },
        {
            "bufferView" : 11,
            "componentType" : 5126,
            "count" : 24,
            "type" : "VEC3"
        },
        {
            "bufferView" : 12,
            "componentType" : 5126,
            "count" : 24,
            "type" : "VEC2"
        },
        {
            "bufferView" : 13,
            "componentType" : 5123,
            "count" : 24,
            "type" : "VEC4"
        },
        {
            "bufferView" : 14,
            "componentType" : 5126,
            "count" : 24,
            "type" : "VEC4"
        },
        {
            "bufferView" : 15,
            "componentType" : 5123,
            "count" : 36,
            "type" : "SCALAR"
        },
        {
            "bufferView" : 16,
            "componentType" : 5126,
            "count" : 34,
            "max" : [
                10.102182388305664,
                2.0272951126098633,
                0.5468654632568359
            ],
            "min" : [
                -4.547977447509766,
                -2.027294874191284,
                -0.5468664169311523
            ],
            "type" : "VEC3"
        },
        {
            "bufferView" : 17,
            "componentType" : 5126,
            "count" : 34,
            "type" : "VEC3"
        },
        {
            "bufferView" : 18,
            "componentType" : 5126,
            "count" : 34,
            "type" : "VEC2"
        },
        {
            "bufferView" : 19,
            "componentType" : 5123,
            "count" : 34,
            "type" : "VEC4"
        },
        {
            "bufferView" : 20,
            "componentType" : 5126,
            "count" : 34,
            "type" : "VEC4"
        },
        {
            "bufferView" : 21,
            "componentType" : 5123,
            "count" : 60,
            "type" : "SCALAR"
        }
    ],
    "bufferViews" : [
        {
            "buffer" : 0,
            "byteLength" : 107328,
            "byteOffset" : 0
        },
        {
            "buffer" : 0,
            "byteLength" : 107328,
            "byteOffset" : 107328
        },
        {
            "buffer" : 0,
            "byteLength" : 71552,
            "byteOffset" : 214656
        },
        {
            "buffer" : 0,
            "byteLength" : 143104,
            "byteOffset" : 286208
        },
        {
            "buffer" : 0,
            "byteLength" : 26832,
            "byteOffset" : 429312
        },
        {
            "buffer" : 0,
            "byteLength" : 12672,
            "byteOffset" : 456144
        },
        {
            "buffer" : 0,
            "byteLength" : 12672,
            "byteOffset" : 468816
        },
        {
            "buffer" : 0,
            "byteLength" : 8448,
            "byteOffset" : 481488
        },
        {
            "buffer" : 0,
            "byteLength" : 16896,
            "byteOffset" : 489936
        },
        {
            "buffer" : 0,
            "byteLength" : 3168,
            "byteOffset" : 506832
        },
        {
            "buffer" : 0,
            "byteLength" : 288,
            "byteOffset" : 510000
        },
        {
            "buffer" : 0,
            "byteLength" : 288,
            "byteOffset" : 510288
        },
        {
            "buffer" : 0,
            "byteLength" : 192,
            "byteOffset" : 510576
        },
        {
            "buffer" : 0,
            "byteLength" : 192,
            "byteOffset" : 510768
        },
        {
            "buffer" : 0,
            "byteLength" : 384,
            "byteOffset" : 510960
        },
        {
            "buffer" : 0,
            "byteLength" : 72,
            "byteOffset" : 511344
        },
        {
            "buffer" : 0,
            "byteLength" : 408,
            "byteOffset" : 511416
        },
        {
            "buffer" : 0,
            "byteLength" : 408,
            "byteOffset" : 511824
        },
        {
            "buffer" : 0,
            "byteLength" : 272,
            "byteOffset" : 512232
        },
        {
            "buffer" : 0,
            "byteLength" : 272,
            "byteOffset" : 512504
        },
        {
            "buffer" : 0,
            "byteLength" : 544,
            "byteOffset" : 512776
        },
        {
            "buffer" : 0,
            "byteLength" : 120,
            "byteOffset" : 513320
        }
    ],
    "buffers" : [
        {
            "byteLength" : 513440,
            "uri" : "StageMap.bin"
        }
    ]
}
