{
    "asset" : {
        "generator" : "Khronos glTF Blender I/O v1.0.5",
        "version" : "2.0"
    },
    "scene" : 0,
    "scenes" : [
        {
            "name" : "Scene",
            "nodes" : [
                0,
                1,
                2,
                3,
                4,
                5,
                6,
                7,
                8,
                9
            ]
        }
    ],
    "nodes" : [
        {
            "mesh" : 0,
            "name" : "rudder",
            "translation" : [
                0,
                0.5999999642372131,
                5.710000038146973
            ]
        },
        {
            "mesh" : 1,
            "name" : "reflect"
        },
        {
            "mesh" : 2,
            "name" : "body_front"
        },
        {
            "mesh" : 3,
            "name" : "glass_1"
        },
        {
            "mesh" : 4,
            "name" : "cockpit_1"
        },
        {
            "mesh" : 5,
            "name" : "landing_li"
        },
        {
            "mesh" : 6,
            "name" : "right_wing"
        },
        {
            "mesh" : 7,
            "name" : "wheel_supp"
        },
        {
            "mesh" : 8,
            "name" : "rear"
        },
        {
            "mesh" : 9,
            "name" : "left_wing"
        }
    ],
    "materials" : [
        {
            "doubleSided" : true,
            "name" : "Rear",
            "pbrMetallicRoughness" : {
                "baseColorTexture" : {
                    "index" : 0,
                    "texCoord" : 0
                },
                "metallicFactor" : 0,
                "roughnessFactor" : 0.5
            }
        },
        {
            "doubleSided" : true,
            "name" : "reflect",
            "pbrMetallicRoughness" : {
                "baseColorTexture" : {
                    "index" : 1,
                    "texCoord" : 0
                },
                "metallicFactor" : 0,
                "roughnessFactor" : 0.5
            }
        },
        {
            "doubleSided" : true,
            "name" : "Body Front",
            "pbrMetallicRoughness" : {
                "baseColorTexture" : {
                    "index" : 2,
                    "texCoord" : 0
                },
                "metallicFactor" : 0,
                "roughnessFactor" : 0.5
            }
        },
        {
            "doubleSided" : true,
            "name" : "Glass",
            "pbrMetallicRoughness" : {
                "baseColorTexture" : {
                    "index" : 3,
                    "texCoord" : 0
                },
                "metallicFactor" : 0,
                "roughnessFactor" : 0.5
            }
        },
        {
            "doubleSided" : true,
            "name" : "Cockpit",
            "pbrMetallicRoughness" : {
                "baseColorTexture" : {
                    "index" : 4,
                    "texCoord" : 0
                },
                "metallicFactor" : 0,
                "roughnessFactor" : 0.5
            }
        },
        {
            "doubleSided" : true,
            "name" : "landing light",
            "pbrMetallicRoughness" : {
                "baseColorTexture" : {
                    "index" : 5,
                    "texCoord" : 0
                },
                "metallicFactor" : 0,
                "roughnessFactor" : 0.5
            }
        },
        {
            "doubleSided" : true,
            "name" : "Right Wing",
            "pbrMetallicRoughness" : {
                "baseColorTexture" : {
                    "index" : 6,
                    "texCoord" : 0
                },
                "metallicFactor" : 0,
                "roughnessFactor" : 0.5
            }
        },
        {
            "doubleSided" : true,
            "name" : "wheel support",
            "pbrMetallicRoughness" : {
                "baseColorTexture" : {
                    "index" : 7,
                    "texCoord" : 0
                },
                "metallicFactor" : 0,
                "roughnessFactor" : 0.5
            }
        },
        {
            "doubleSided" : true,
            "name" : "Left Wing",
            "pbrMetallicRoughness" : {
                "baseColorTexture" : {
                    "index" : 8,
                    "texCoord" : 0
                },
                "metallicFactor" : 0,
                "roughnessFactor" : 0.5
            }
        }
    ],
    "meshes" : [
        {
            "name" : "obj2",
            "primitives" : [
                {
                    "attributes" : {
                        "POSITION" : 0,
                        "NORMAL" : 1,
                        "TEXCOORD_0" : 2
                    },
                    "indices" : 3,
                    "material" : 0
                }
            ]
        },
        {
            "name" : "reflect",
            "primitives" : [
                {
                    "attributes" : {
                        "POSITION" : 4,
                        "NORMAL" : 5,
                        "TEXCOORD_0" : 6
                    },
                    "indices" : 7,
                    "material" : 1
                }
            ]
        },
        {
            "name" : "body_front",
            "primitives" : [
                {
                    "attributes" : {
                        "POSITION" : 8,
                        "NORMAL" : 9,
                        "TEXCOORD_0" : 10
                    },
                    "indices" : 11,
                    "material" : 2
                }
            ]
        },
        {
            "name" : "glass_1",
            "primitives" : [
                {
                    "attributes" : {
                        "POSITION" : 12,
                        "NORMAL" : 13,
                        "TEXCOORD_0" : 14
                    },
                    "indices" : 15,
                    "material" : 3
                }
            ]
        },
        {
            "name" : "cockpit_1",
            "primitives" : [
                {
                    "attributes" : {
                        "POSITION" : 16,
                        "NORMAL" : 17,
                        "TEXCOORD_0" : 18
                    },
                    "indices" : 19,
                    "material" : 4
                }
            ]
        },
        {
            "name" : "landing_li",
            "primitives" : [
                {
                    "attributes" : {
                        "POSITION" : 20,
                        "NORMAL" : 21,
                        "TEXCOORD_0" : 22
                    },
                    "indices" : 23,
                    "material" : 5
                }
            ]
        },
        {
            "name" : "right_wing",
            "primitives" : [
                {
                    "attributes" : {
                        "POSITION" : 24,
                        "NORMAL" : 25,
                        "TEXCOORD_0" : 26
                    },
                    "indices" : 27,
                    "material" : 6
                }
            ]
        },
        {
            "name" : "wheel_supp",
            "primitives" : [
                {
                    "attributes" : {
                        "POSITION" : 28,
                        "NORMAL" : 29,
                        "TEXCOORD_0" : 30
                    },
                    "indices" : 31,
                    "material" : 7
                }
            ]
        },
        {
            "name" : "rear",
            "primitives" : [
                {
                    "attributes" : {
                        "POSITION" : 32,
                        "NORMAL" : 33,
                        "TEXCOORD_0" : 34
                    },
                    "indices" : 35,
                    "material" : 0
                }
            ]
        },
        {
            "name" : "left_wing_",
            "primitives" : [
                {
                    "attributes" : {
                        "POSITION" : 36,
                        "NORMAL" : 37,
                        "TEXCOORD_0" : 38
                    },
                    "indices" : 39,
                    "material" : 8
                }
            ]
        }
    ],
    "textures" : [
        {
            "source" : 0
        },
        {
            "source" : 1
        },
        {
            "source" : 2
        },
        {
            "source" : 3
        },
        {
            "source" : 4
        },
        {
            "source" : 5
        },
        {
            "source" : 6
        },
        {
            "source" : 7
        },
        {
            "source" : 8
        }
    ],
    "images" : [
        {
            "mimeType" : "image/png",
            "name" : "rear",
            "uri" : "rear.png"
        },
        {
            "mimeType" : "image/png",
            "name" : "ref",
            "uri" : "ref.png"
        },
        {
            "mimeType" : "image/png",
            "name" : "Body Front",
            "uri" : "Body Front.png"
        },
        {
            "mimeType" : "image/png",
            "name" : "glass",
            "uri" : "glass.png"
        },
        {
            "mimeType" : "image/png",
            "name" : "Cockpit",
            "uri" : "Cockpit.png"
        },
        {
            "mimeType" : "image/png",
            "name" : "landing light",
            "uri" : "landing light.png"
        },
        {
            "mimeType" : "image/png",
            "name" : "Right Wing",
            "uri" : "Right Wing.png"
        },
        {
            "mimeType" : "image/png",
            "name" : "Wheel Support",
            "uri" : "Wheel Support.png"
        },
        {
            "mimeType" : "image/png",
            "name" : "Left Wing",
            "uri" : "Left Wing.png"
        }
    ],
    "accessors" : [
        {
            "bufferView" : 0,
            "componentType" : 5126,
            "count" : 112,
            "max" : [
                0.056123945862054825,
                0.9404590725898743,
                0.5817909240722656
            ],
            "min" : [
                -0.055876944214105606,
                -0.7835384011268616,
                -0.2822103500366211
            ],
            "type" : "VEC3"
        },
        {
            "bufferView" : 1,
            "componentType" : 5126,
            "count" : 112,
            "type" : "VEC3"
        },
        {
            "bufferView" : 2,
            "componentType" : 5126,
            "count" : 112,
            "type" : "VEC2"
        },
        {
            "bufferView" : 3,
            "componentType" : 5123,
            "count" : 402,
            "type" : "SCALAR"
        },
        {
            "bufferView" : 4,
            "componentType" : 5126,
            "count" : 4,
            "max" : [
                0.06205993890762329,
                0.8138742446899414,
                0.5288084745407104
            ],
            "min" : [
                -0.06593993306159973,
                0.7538743019104004,
                0.5088084936141968
            ],
            "type" : "VEC3"
        },
        {
            "bufferView" : 5,
            "componentType" : 5126,
            "count" : 4,
            "type" : "VEC3"
        },
        {
            "bufferView" : 6,
            "componentType" : 5126,
            "count" : 4,
            "type" : "VEC2"
        },
        {
            "bufferView" : 7,
            "componentType" : 5123,
            "count" : 6,
            "type" : "SCALAR"
        },
        {
            "bufferView" : 8,
            "componentType" : 5126,
            "count" : 3550,
            "max" : [
                0.8100591897964478,
                1.365872859954834,
                3.2288057804107666
            ],
            "min" : [
                -0.8099392652511597,
                -0.9261242151260376,
                -2.683185338973999
            ],
            "type" : "VEC3"
        },
        {
            "bufferView" : 9,
            "componentType" : 5126,
            "count" : 3550,
            "type" : "VEC3"
        },
        {
            "bufferView" : 10,
            "componentType" : 5126,
            "count" : 3550,
            "type" : "VEC2"
        },
        {
            "bufferView" : 11,
            "componentType" : 5123,
            "count" : 10800,
            "type" : "SCALAR"
        },
        {
            "bufferView" : 12,
            "componentType" : 5126,
            "count" : 360,
            "max" : [
                0.30605971813201904,
                0.7778742909431458,
                2.2968058586120605
            ],
            "min" : [
                -0.3099397122859955,
                0.3738747239112854,
                0.18080878257751465
            ],
            "type" : "VEC3"
        },
        {
            "bufferView" : 13,
            "componentType" : 5126,
            "count" : 360,
            "type" : "VEC3"
        },
        {
            "bufferView" : 14,
            "componentType" : 5126,
            "count" : 360,
            "type" : "VEC2"
        },
        {
            "bufferView" : 15,
            "componentType" : 5123,
            "count" : 1209,
            "type" : "SCALAR"
        },
        {
            "bufferView" : 16,
            "componentType" : 5126,
            "count" : 788,
            "max" : [
                0.4340595602989197,
                0.7138743996620178,
                1.6088075637817383
            ],
            "min" : [
                -0.4339396059513092,
                -0.5261244177818298,
                0.19280877709388733
            ],
            "type" : "VEC3"
        },
        {
            "bufferView" : 17,
            "componentType" : 5126,
            "count" : 788,
            "type" : "VEC3"
        },
        {
            "bufferView" : 18,
            "componentType" : 5126,
            "count" : 788,
            "type" : "VEC2"
        },
        {
            "bufferView" : 19,
            "componentType" : 5123,
            "count" : 1839,
            "type" : "SCALAR"
        },
        {
            "bufferView" : 20,
            "componentType" : 5126,
            "count" : 9,
            "max" : [
                -2.3779377937316895,
                -0.55012446641922,
                -0.2431907206773758
            ],
            "min" : [
                -2.4979376792907715,
                -0.6581243872642517,
                -0.29119065403938293
            ],
            "type" : "VEC3"
        },
        {
            "bufferView" : 21,
            "componentType" : 5126,
            "count" : 9,
            "type" : "VEC3"
        },
        {
            "bufferView" : 22,
            "componentType" : 5126,
            "count" : 9,
            "type" : "VEC2"
        },
        {
            "bufferView" : 23,
            "componentType" : 5123,
            "count" : 24,
            "type" : "SCALAR"
        },
        {
            "bufferView" : 24,
            "componentType" : 5126,
            "count" : 1084,
            "max" : [
                -0.34580469131469727,
                -0.18212486803531647,
                1.2208079099655151
            ],
            "min" : [
                -5.833934307098389,
                -1.04612398147583,
                -1.3911887407302856
            ],
            "type" : "VEC3"
        },
        {
            "bufferView" : 25,
            "componentType" : 5126,
            "count" : 1084,
            "type" : "VEC3"
        },
        {
            "bufferView" : 26,
            "componentType" : 5126,
            "count" : 1084,
            "type" : "VEC2"
        },
        {
            "bufferView" : 27,
            "componentType" : 5123,
            "count" : 3069,
            "type" : "SCALAR"
        },
        {
            "bufferView" : 28,
            "componentType" : 5126,
            "count" : 96,
            "max" : [
                1.6420594453811646,
                -0.7021233439445496,
                -0.27919065952301025
            ],
            "min" : [
                -1.6579384803771973,
                -0.7621253132820129,
                -0.4671914875507355
            ],
            "type" : "VEC3"
        },
        {
            "bufferView" : 29,
            "componentType" : 5126,
            "count" : 96,
            "type" : "VEC3"
        },
        {
            "bufferView" : 30,
            "componentType" : 5126,
            "count" : 96,
            "type" : "VEC2"
        },
        {
            "bufferView" : 31,
            "componentType" : 5123,
            "count" : 294,
            "type" : "SCALAR"
        },
        {
            "bufferView" : 32,
            "componentType" : 5126,
            "count" : 1920,
            "max" : [
                1.9460591077804565,
                1.6018739938735962,
                5.979400634765625
            ],
            "min" : [
                -1.9579381942749023,
                -0.8381242752075195,
                -0.9391900300979614
            ],
            "type" : "VEC3"
        },
        {
            "bufferView" : 33,
            "componentType" : 5126,
            "count" : 1920,
            "type" : "VEC3"
        },
        {
            "bufferView" : 34,
            "componentType" : 5126,
            "count" : 1920,
            "type" : "VEC2"
        },
        {
            "bufferView" : 35,
            "componentType" : 5123,
            "count" : 6231,
            "type" : "SCALAR"
        },
        {
            "bufferView" : 36,
            "componentType" : 5126,
            "count" : 920,
            "max" : [
                5.834054470062256,
                -0.18212486803531647,
                1.224807858467102
            ],
            "min" : [
                0.3457866907119751,
                -0.9365870356559753,
                -1.3911887407302856
            ],
            "type" : "VEC3"
        },
        {
            "bufferView" : 37,
            "componentType" : 5126,
            "count" : 920,
            "type" : "VEC3"
        },
        {
            "bufferView" : 38,
            "componentType" : 5126,
            "count" : 920,
            "type" : "VEC2"
        },
        {
            "bufferView" : 39,
            "componentType" : 5123,
            "count" : 2628,
            "type" : "SCALAR"
        }
    ],
    "bufferViews" : [
        {
            "buffer" : 0,
            "byteLength" : 1344,
            "byteOffset" : 0
        },
        {
            "buffer" : 0,
            "byteLength" : 1344,
            "byteOffset" : 1344
        },
        {
            "buffer" : 0,
            "byteLength" : 896,
            "byteOffset" : 2688
        },
        {
            "buffer" : 0,
            "byteLength" : 804,
            "byteOffset" : 3584
        },
        {
            "buffer" : 0,
            "byteLength" : 48,
            "byteOffset" : 4388
        },
        {
            "buffer" : 0,
            "byteLength" : 48,
            "byteOffset" : 4436
        },
        {
            "buffer" : 0,
            "byteLength" : 32,
            "byteOffset" : 4484
        },
        {
            "buffer" : 0,
            "byteLength" : 12,
            "byteOffset" : 4516
        },
        {
            "buffer" : 0,
            "byteLength" : 42600,
            "byteOffset" : 4528
        },
        {
            "buffer" : 0,
            "byteLength" : 42600,
            "byteOffset" : 47128
        },
        {
            "buffer" : 0,
            "byteLength" : 28400,
            "byteOffset" : 89728
        },
        {
            "buffer" : 0,
            "byteLength" : 21600,
            "byteOffset" : 118128
        },
        {
            "buffer" : 0,
            "byteLength" : 4320,
            "byteOffset" : 139728
        },
        {
            "buffer" : 0,
            "byteLength" : 4320,
            "byteOffset" : 144048
        },
        {
            "buffer" : 0,
            "byteLength" : 2880,
            "byteOffset" : 148368
        },
        {
            "buffer" : 0,
            "byteLength" : 2418,
            "byteOffset" : 151248
        },
        {
            "buffer" : 0,
            "byteLength" : 9456,
            "byteOffset" : 153668
        },
        {
            "buffer" : 0,
            "byteLength" : 9456,
            "byteOffset" : 163124
        },
        {
            "buffer" : 0,
            "byteLength" : 6304,
            "byteOffset" : 172580
        },
        {
            "buffer" : 0,
            "byteLength" : 3678,
            "byteOffset" : 178884
        },
        {
            "buffer" : 0,
            "byteLength" : 108,
            "byteOffset" : 182564
        },
        {
            "buffer" : 0,
            "byteLength" : 108,
            "byteOffset" : 182672
        },
        {
            "buffer" : 0,
            "byteLength" : 72,
            "byteOffset" : 182780
        },
        {
            "buffer" : 0,
            "byteLength" : 48,
            "byteOffset" : 182852
        },
        {
            "buffer" : 0,
            "byteLength" : 13008,
            "byteOffset" : 182900
        },
        {
            "buffer" : 0,
            "byteLength" : 13008,
            "byteOffset" : 195908
        },
        {
            "buffer" : 0,
            "byteLength" : 8672,
            "byteOffset" : 208916
        },
        {
            "buffer" : 0,
            "byteLength" : 6138,
            "byteOffset" : 217588
        },
        {
            "buffer" : 0,
            "byteLength" : 1152,
            "byteOffset" : 223728
        },
        {
            "buffer" : 0,
            "byteLength" : 1152,
            "byteOffset" : 224880
        },
        {
            "buffer" : 0,
            "byteLength" : 768,
            "byteOffset" : 226032
        },
        {
            "buffer" : 0,
            "byteLength" : 588,
            "byteOffset" : 226800
        },
        {
            "buffer" : 0,
            "byteLength" : 23040,
            "byteOffset" : 227388
        },
        {
            "buffer" : 0,
            "byteLength" : 23040,
            "byteOffset" : 250428
        },
        {
            "buffer" : 0,
            "byteLength" : 15360,
            "byteOffset" : 273468
        },
        {
            "buffer" : 0,
            "byteLength" : 12462,
            "byteOffset" : 288828
        },
        {
            "buffer" : 0,
            "byteLength" : 11040,
            "byteOffset" : 301292
        },
        {
            "buffer" : 0,
            "byteLength" : 11040,
            "byteOffset" : 312332
        },
        {
            "buffer" : 0,
            "byteLength" : 7360,
            "byteOffset" : 323372
        },
        {
            "buffer" : 0,
            "byteLength" : 5256,
            "byteOffset" : 330732
        }
    ],
    "buffers" : [
        {
            "byteLength" : 335988,
            "uri" : "Aircraft.bin"
        }
    ]
}
