{
    "asset" : {
        "generator" : "Khronos glTF Blender I/O v1.0.5",
        "version" : "2.0"
    },
    "scene" : 0,
    "scenes" : [
        {
            "name" : "Scene",
            "nodes" : [
                1
            ]
        }
    ],
    "nodes" : [
        {
            "mesh" : 0,
            "name" : "obj1"
        },
        {
            "children" : [
                0
            ],
            "name" : "Missile"
        }
    ],
    "materials" : [
        {
            "doubleSided" : true,
            "name" : "Material",
            "pbrMetallicRoughness" : {
                "baseColorTexture" : {
                    "index" : 0,
                    "texCoord" : 0
                },
                "metallicFactor" : 0,
                "roughnessFactor" : 0.2583330273628235
            }
        }
    ],
    "meshes" : [
        {
            "name" : "obj1",
            "primitives" : [
                {
                    "attributes" : {
                        "POSITION" : 0,
                        "NORMAL" : 1,
                        "TEXCOORD_0" : 2
                    },
                    "indices" : 3,
                    "material" : 0
                }
            ]
        }
    ],
    "textures" : [
        {
            "source" : 0
        }
    ],
    "images" : [
        {
            "mimeType" : "image/png",
            "name" : "R27 Texture",
            "uri" : "R27 Texture.png"
        }
    ],
    "accessors" : [
        {
            "bufferView" : 0,
            "componentType" : 5126,
            "count" : 1697,
            "max" : [
                0.41000959277153015,
                0.4148225784301758,
                2.0539450645446777
            ],
            "min" : [
                -0.41001060605049133,
                -0.41482362151145935,
                -2.0545759201049805
            ],
            "type" : "VEC3"
        },
        {
            "bufferView" : 1,
            "componentType" : 5126,
            "count" : 1697,
            "type" : "VEC3"
        },
        {
            "bufferView" : 2,
            "componentType" : 5126,
            "count" : 1697,
            "type" : "VEC2"
        },
        {
            "bufferView" : 3,
            "componentType" : 5123,
            "count" : 4842,
            "type" : "SCALAR"
        }
    ],
    "bufferViews" : [
        {
            "buffer" : 0,
            "byteLength" : 20364,
            "byteOffset" : 0
        },
        {
            "buffer" : 0,
            "byteLength" : 20364,
            "byteOffset" : 20364
        },
        {
            "buffer" : 0,
            "byteLength" : 13576,
            "byteOffset" : 40728
        },
        {
            "buffer" : 0,
            "byteLength" : 9684,
            "byteOffset" : 54304
        }
    ],
    "buffers" : [
        {
            "byteLength" : 63988,
            "uri" : "Missile.bin"
        }
    ]
}
